<?xml version="1.0" standalone="no"?>
<!DOCTYPE svg PUBLIC "-//W3C//DTD SVG 20010904//EN"
 "http://www.w3.org/TR/2001/REC-SVG-20010904/DTD/svg10.dtd">
<svg version="1.0" xmlns="http://www.w3.org/2000/svg"
 width="1298.000000pt" height="1298.000000pt" viewBox="0 0 1298.000000 1298.000000"
 preserveAspectRatio="xMidYMid meet">
<metadata>
Created by potrace 1.11, written by Peter Selinger 2001-2013
</metadata>
<g transform="translate(0.000000,1298.000000) scale(0.100000,-0.100000)"
fill="#000000" stroke="none">
<path d="M8135 12973 c-199 -13 -494 -56 -675 -99 -556 -131 -988 -359 -1354
-714 -361 -350 -620 -789 -804 -1360 -65 -203 -84 -279 -205 -820 l-102 -455
-577 -3 c-538 -2 -577 -3 -582 -20 -11 -38 -366 -1673 -366 -1686 0 -8 39 -63
88 -123 l88 -108 468 -3 468 -2 -5 -28 c-3 -15 -357 -1669 -787 -3676 -463
-2164 -777 -3653 -772 -3660 5 -6 46 -57 91 -113 l82 -103 1139 0 c1076 0
1139 1 1144 18 3 9 368 1707 811 3772 443 2065 808 3763 811 3773 5 16 52 17
802 17 l797 0 148 703 c82 386 163 772 181 858 l33 157 -90 111 -89 111 -670
0 c-633 0 -669 1 -664 18 3 9 28 125 56 257 85 399 119 519 201 693 126 270
274 404 516 464 127 32 401 32 553 -1 121 -26 274 -69 394 -111 47 -17 91 -30
100 -30 14 0 256 128 256 135 0 2 81 405 180 896 99 491 177 896 173 900 -12
11 -215 74 -328 103 -217 54 -530 105 -780 126 -109 9 -608 11 -730 3z"/>
</g>
</svg>
