<?xml version="1.0" standalone="no"?>
<!DOCTYPE svg PUBLIC "-//W3C//DTD SVG 20010904//EN"
 "http://www.w3.org/TR/2001/REC-SVG-20010904/DTD/svg10.dtd">
<svg version="1.0" xmlns="http://www.w3.org/2000/svg"
 width="300.000000pt" height="300.000000pt" viewBox="0 1100 2831.000000 694.000000"
 preserveAspectRatio="xMidYMid meet">
<metadata>
Created by potrace 1.15, written by Peter Selinger 2001-2017
(Encoded into SVG by Amish Dotcom)
</metadata>
<g transform="translate(0.000000,694.000000) scale(0.100000,-0.100000)"
fill="#f22056" stroke="none">
<path d="M2615 6594 c-452 -34 -758 -160 -996 -411 -199 -209 -309 -446 -408
-884 -28 -123 -53 -234 -56 -246 l-5 -23 -264 0 -263 0 -87 -395 -87 -395 42
-50 42 -50 215 0 214 0 -6 -23 c-3 -13 -163 -763 -356 -1668 -193 -904 -353
-1651 -356 -1660 -2 -9 14 -39 37 -68 l41 -51 526 2 525 3 371 1732 371 1733
365 0 365 0 83 391 82 392 -42 53 -43 53 -303 1 -302 0 5 23 c3 12 17 76 31
142 74 339 169 457 384 480 81 8 175 -6 307 -47 l103 -31 57 31 58 31 82 403
c45 222 82 408 83 414 0 22 -236 82 -405 103 -94 12 -337 20 -410 15z"/>
<path d="M3781 6493 c-6 -21 -55 -252 -111 -513 -90 -425 -175 -824 -466
-2185 -211 -990 -218 -1027 -218 -1315 0 -182 2 -214 22 -284 38 -137 86 -220
182 -317 71 -72 100 -94 180 -133 163 -80 218 -90 485 -90 196 -1 249 3 356
22 136 24 316 66 325 75 7 6 164 734 164 758 0 9 -25 38 -56 64 l-55 48 -72
-23 c-43 -13 -111 -24 -167 -27 -84 -5 -101 -3 -137 16 -23 11 -45 31 -49 43
-14 43 -4 164 25 303 17 77 190 893 385 1814 l355 1673 -42 54 -42 53 -527 0
-527 1 -10 -37z"/>
<path d="M11710 6525 c0 -2 -214 -1013 -475 -2247 -261 -1233 -475 -2248 -475
-2255 0 -26 189 -129 362 -197 231 -91 537 -162 803 -187 156 -15 545 -6 685
16 573 88 1053 379 1345 815 267 400 405 867 405 1375 0 306 -42 508 -150 730
-95 193 -241 341 -423 430 -272 132 -630 135 -935 7 -94 -39 -239 -130 -307
-193 -25 -23 -45 -37 -45 -30 0 6 11 59 25 118 14 60 92 424 175 811 l150 703
-42 55 -43 54 -527 0 c-291 0 -528 -2 -528 -5z m1321 -2366 c57 -25 89 -58
124 -127 45 -90 58 -177 52 -352 -14 -387 -160 -747 -394 -970 -97 -93 -167
-139 -271 -178 -61 -24 -80 -26 -217 -27 -139 0 -250 14 -285 35 -17 10 137
740 191 905 48 145 130 320 204 430 101 152 260 280 379 305 59 13 161 3 217
-21z"/>
<path d="M15576 6463 c-9 -38 -61 -282 -117 -543 -55 -261 -156 -736 -224
-1055 -411 -1921 -421 -1972 -446 -2225 -15 -155 -6 -329 21 -435 53 -208 179
-369 360 -459 162 -79 218 -90 485 -90 195 0 250 3 359 22 145 25 315 66 326
79 4 4 42 172 84 373 42 201 79 372 81 380 2 9 -20 34 -54 62 l-58 47 -98 -24
c-171 -44 -314 -26 -331 41 -14 56 7 210 70 499 35 165 207 972 381 1793 l316
1492 -43 55 -43 55 -526 0 -527 0 -16 -67z"/>
<path d="M23585 6518 c-2 -7 -73 -334 -157 -726 l-153 -714 -35 6 c-111 18
-368 27 -512 17 -333 -24 -559 -84 -828 -221 -312 -160 -560 -378 -751 -664
-177 -263 -290 -550 -349 -887 -27 -155 -39 -505 -21 -655 45 -381 180 -662
401 -837 179 -142 383 -207 645 -207 303 0 544 100 785 326 l82 78 -8 -118 -7
-117 44 -45 43 -44 496 0 496 0 41 43 41 42 6 130 c23 454 48 592 476 2624
214 1018 390 1857 390 1865 0 7 -18 36 -41 65 l-41 51 -519 0 c-407 0 -520 -3
-524 -12z m-572 -2287 c43 -5 80 -10 82 -12 6 -7 -141 -662 -181 -804 -96
-337 -212 -566 -367 -719 -101 -99 -180 -138 -293 -144 -65 -3 -95 0 -130 13
-142 54 -213 226 -201 480 11 216 65 437 157 631 60 128 115 210 204 303 195
203 428 283 729 252z"/>
<path d="M6287 6489 c-255 -35 -454 -188 -530 -408 -25 -71 -34 -244 -18 -323
30 -140 157 -301 291 -366 202 -98 472 -97 672 4 98 49 221 172 266 266 59
122 77 270 47 396 -47 197 -217 363 -426 416 -77 19 -219 27 -302 15z"/>
<path d="M18871 5100 c-500 -35 -909 -189 -1246 -472 -212 -177 -363 -377
-501 -663 -158 -326 -237 -676 -238 -1045 0 -275 39 -496 122 -689 172 -397
486 -601 927 -601 314 0 546 95 776 318 l97 93 -6 -126 -5 -126 39 -40 38 -39
501 0 501 0 41 43 41 42 5 155 c7 164 33 417 67 640 12 74 126 628 254 1230
216 1017 232 1096 215 1102 -42 16 -471 99 -631 122 -354 51 -747 73 -997 56z
m333 -880 c9 -9 -98 -511 -159 -745 -43 -164 -105 -346 -155 -450 -111 -232
-276 -408 -427 -455 -71 -22 -175 -26 -220 -9 -82 30 -143 102 -179 209 -29
85 -26 386 5 530 78 366 242 646 465 795 119 79 224 117 381 139 47 7 279 -5
289 -14z"/>
<path d="M26442 5100 c-595 -50 -1116 -362 -1446 -867 -327 -500 -436 -1221
-265 -1745 143 -440 509 -745 999 -833 143 -26 469 -31 645 -11 295 34 558
108 815 227 50 23 90 45 90 48 0 4 33 169 74 367 41 199 76 373 78 387 3 22
-7 33 -60 70 l-64 44 -126 -63 c-314 -155 -621 -231 -892 -221 -161 6 -239 27
-332 91 -99 67 -154 159 -173 289 l-7 44 159 7 c663 30 1158 148 1470 352 224
146 361 336 425 591 29 116 32 370 5 477 -87 345 -328 580 -709 690 -174 50
-467 74 -686 56z m207 -826 c52 -21 98 -73 107 -121 9 -50 -9 -135 -41 -189
-52 -89 -183 -167 -353 -210 -109 -28 -311 -54 -416 -54 l-68 0 6 28 c13 53
106 228 157 296 98 128 271 244 399 265 70 12 157 6 209 -15z"/>
<path d="M5620 5022 c0 -4 -81 -390 -180 -857 -236 -1113 -256 -1211 -280
-1398 -24 -186 -26 -403 -6 -509 60 -309 250 -503 572 -585 110 -28 477 -25
645 5 131 23 316 66 324 74 5 4 148 665 162 743 4 28 -1 36 -53 79 -42 34 -63
46 -78 41 -207 -61 -346 -61 -396 0 -21 25 -17 154 9 280 11 55 110 527 221
1050 110 522 200 958 200 968 0 10 -19 41 -42 68 l-41 49 -529 0 c-290 0 -528
-4 -528 -8z"/>
<path d="M7508 4972 c-21 -32 -38 -64 -38 -71 0 -7 142 -342 316 -744 174
-403 319 -737 321 -744 3 -8 -1148 -1333 -1333 -1533 l-23 -25 32 -72 32 -73
600 1 600 0 56 77 c30 42 188 255 350 472 162 217 301 406 310 419 15 23 22 5
185 -472 l169 -497 575 0 575 0 39 60 38 60 -336 759 c-185 418 -336 762 -336
765 0 4 299 348 665 766 l665 759 -35 76 -34 75 -574 0 -574 0 -304 -417
c-167 -230 -334 -459 -371 -511 l-67 -94 -40 129 c-23 70 -94 299 -159 508
l-118 380 -575 2 -574 3 -37 -58z"/>
</g>
</svg>
